name GIL03_xslow1.mot
datacolumns 153
datarows 4
range 0.27499998 0.29999998
endheader

                time	           pelvis_tx	           pelvis_ty	           pelvis_tz	         pelvis_tilt	         pelvis_list	     pelvis_rotation	       hip_flexion_r	     hip_adduction_r	      hip_rotation_r	        knee_angle_r	       ankle_angle_r	    subtalar_angle_r	         mtp_angle_r	       hip_flexion_l	     hip_adduction_l	      hip_rotation_l	        knee_angle_l	       ankle_angle_l	    subtalar_angle_l	         mtp_angle_l	    lumbar_extension	      lumbar_bending	     lumbar_rotation	     ground_force_vx	     ground_force_vy	     ground_force_vz	     ground_force_px	     ground_force_py	     ground_force_pz	     ground_force_vx	     ground_force_vy	     ground_force_vz	     ground_force_px	     ground_force_py	     ground_force_pz	     ground_torque_x	     ground_torque_y	     ground_torque_z	     ground_torque_x	     ground_torque_y	     ground_torque_z	    ground_marker_px	    ground_marker_py	    ground_marker_pz	    ground_marker_px	    ground_marker_py	    ground_marker_pz	    ground_marker_px	    ground_marker_py	    ground_marker_pz	    ground_marker_px	    ground_marker_py	    ground_marker_pz	    ground_marker_px	    ground_marker_py	    ground_marker_pz	    ground_marker_px	    ground_marker_py	    ground_marker_pz	    ground_marker_px	    ground_marker_py	    ground_marker_pz	    ground_marker_px	    ground_marker_py	    ground_marker_pz	    ground_marker_px	    ground_marker_py	    ground_marker_pz	    ground_marker_px	    ground_marker_py	    ground_marker_pz	    ground_marker_px	    ground_marker_py	    ground_marker_pz	    ground_marker_px	    ground_marker_py	    ground_marker_pz	    ground_marker_px	    ground_marker_py	    ground_marker_pz	    ground_marker_px	    ground_marker_py	    ground_marker_pz	    ground_marker_px	    ground_marker_py	    ground_marker_pz	    ground_marker_px	    ground_marker_py	    ground_marker_pz	    ground_marker_px	    ground_marker_py	    ground_marker_pz	    ground_marker_px	    ground_marker_py	    ground_marker_pz	    ground_marker_px	    ground_marker_py	    ground_marker_pz	    ground_marker_px	    ground_marker_py	    ground_marker_pz	    ground_marker_px	    ground_marker_py	    ground_marker_pz	    ground_marker_px	    ground_marker_py	    ground_marker_pz	    ground_marker_px	    ground_marker_py	    ground_marker_pz	    ground_marker_px	    ground_marker_py	    ground_marker_pz	    ground_marker_px	    ground_marker_py	    ground_marker_pz	    ground_marker_px	    ground_marker_py	    ground_marker_pz	    ground_marker_px	    ground_marker_py	    ground_marker_pz	    ground_marker_px	    ground_marker_py	    ground_marker_pz	    ground_marker_px	    ground_marker_py	    ground_marker_pz	    ground_marker_px	    ground_marker_py	    ground_marker_pz	    ground_marker_px	    ground_marker_py	    ground_marker_pz	    ground_marker_px	    ground_marker_py	    ground_marker_pz	    ground_marker_px	    ground_marker_py	    ground_marker_pz	    ground_marker_px	    ground_marker_py	    ground_marker_pz	    ground_marker_px	    ground_marker_py	    ground_marker_pz	    ground_marker_px	    ground_marker_py	    ground_marker_pz	    ground_marker_px	    ground_marker_py	    ground_marker_pz	
          0.27499998	          1.46200705	          0.90023810	         -0.27041960	          2.79631424	          2.83135676	         -6.20734167	         -4.53851461	         -7.87676954	         -8.70614052	        -45.97451782	          0.80851626	          0.00000000	          0.00000000	         10.65073776	          4.77823830	          5.62083912	        -17.78062820	          5.11819887	          0.00000000	          0.00000000	        -19.88966370	         -2.87082386	          4.27269125	          0.00000000	          0.00000000	          0.00000000	          1.74612659	          0.00000000	         -0.17225044	        -25.74773888	        408.42163588	         15.97052430	          1.49683496	          0.00000000	         -0.30824509	          0.00000000	          0.00000000	          0.00000000	          0.00000000	          1.85713184	          0.00000000	          1.40528727	          0.83778930	         -0.28531274	          1.40224469	          0.81825203	         -0.22095129	          1.40583789	          0.82041883	         -0.33834815	          1.38444400	          0.43768299	         -0.18210030	          1.48482943	          0.47101197	         -0.31005824	          1.09601426	          0.17218527	         -0.21866214	          1.45251465	          0.06566507	         -0.30785871	          1.46200705	          0.90023810	         -0.27041960	          1.45045769	          0.89709544	         -0.17034404	          1.47355628	          0.90338075	         -0.37049514	          1.30246651	          0.92580801	         -0.26502186	          1.30852664	          0.92759639	         -0.31991094	          1.37953854	          0.44347349	         -0.12762637	          1.50989735	          0.47276357	         -0.35841915	          1.39885890	          0.43017614	         -0.23737745	          1.46217656	          0.45333412	         -0.27572787	          1.08346653	          0.18095203	         -0.18333584	          1.46800661	          0.06423894	         -0.34307536	          1.12301254	          0.17513677	         -0.24471246	          1.46794808	          0.07802140	         -0.27826521	          1.36771989	          1.34023035	         -0.26224998	          1.46171379	          1.26280379	         -0.21215291	          1.46482062	          1.26333964	         -0.31937522	          1.44886935	          1.27482545	         -0.27111915	          1.49492657	          1.10543334	         -0.26976717	          1.53321421	          0.61008513	         -0.16450998	          1.56598079	          0.65703619	         -0.26848972	          1.45066416	          0.66191602	         -0.14161830	          1.51618528	          0.68348509	         -0.35200131	          1.44102848	          0.57671404	         -0.13772625	          1.53132260	          0.59799021	         -0.34023562	          1.15907967	          0.27080455	         -0.10357236	          1.46329212	          0.17846523	         -0.41653824	          1.17273390	          0.27228603	         -0.14340904	          1.46283782	          0.18604238	         -0.37413642	          1.15222323	          0.07628136	         -0.18850812	          1.58336771	          0.03842560	         -0.29123002	
          0.28333333	          1.46722770	          0.90062010	         -0.27123293	          2.89134407	          2.77615881	         -6.15133476	         -3.71202278	         -8.05960464	         -8.74625587	        -47.59177780	          1.46848059	          0.00000000	          0.00000000	         10.25625610	          4.83711958	          5.35754299	        -17.93987656	          5.50794601	          0.00000000	          0.00000000	        -20.01790619	         -2.83138442	          4.15753746	          0.00000000	          0.00000000	          0.00000000	          1.74817456	          0.00000000	         -0.17270007	        -25.93384824	        408.08148405	         15.82068473	          1.49959143	          0.00000000	         -0.30768292	          0.00000000	          0.00000000	          0.00000000	          0.00000000	          1.85456226	          0.00000000	          1.41068351	          0.83809608	         -0.28581247	          1.40766060	          0.81857163	         -0.22163270	          1.41111910	          0.82065105	         -0.33903518	          1.39585125	          0.43792006	         -0.18062750	          1.48830736	          0.47085550	         -0.31047919	          1.10540736	          0.17602867	         -0.21990466	          1.45269799	          0.06579328	         -0.30781117	          1.46722770	          0.90062010	         -0.27123293	          1.45579684	          0.89753789	         -0.17115392	          1.47865844	          0.90370232	         -0.37131196	          1.30766726	          0.92587370	         -0.26534763	          1.31371963	          0.92768580	         -0.32039410	          1.39085627	          0.44393960	         -0.12618655	          1.51311469	          0.47237009	         -0.35898226	          1.41057110	          0.42992678	         -0.23574661	          1.46582341	          0.45342556	         -0.27601045	          1.09269011	          0.18484530	         -0.18465145	          1.46808672	          0.06420823	         -0.34306630	          1.13319600	          0.17838271	         -0.24557905	          1.46815848	          0.07803972	         -0.27825594	          1.37270939	          1.34058738	         -0.26284871	          1.46662188	          1.26312435	         -0.21266595	          1.46983171	          1.26360846	         -0.31996244	          1.45385551	          1.27512658	         -0.27169371	          1.49980009	          1.10570812	         -0.27021372	          1.54238558	          0.61246192	         -0.16386780	          1.57080901	          0.65657085	         -0.26970205	          1.45930481	          0.66281176	         -0.14144444	          1.52065670	          0.68313229	         -0.35304096	          1.45077741	          0.57775116	         -0.13701874	          1.53538823	          0.59756958	         -0.34120360	          1.16874766	          0.27373037	         -0.10425637	          1.46411192	          0.17838445	         -0.41666299	          1.18272901	          0.27515706	         -0.14412698	          1.46389341	          0.18599030	         -0.37423444	          1.16106045	          0.08011061	         -0.18683618	          1.58343554	          0.03838320	         -0.29125550	
          0.29166666	          1.47241533	          0.90100974	         -0.27205828	          2.98673153	          2.70951247	         -6.08083677	         -2.90776825	         -8.22984409	         -8.79269791	        -49.05289078	          2.14353251	          0.00000000	          0.00000000	          9.85287094	          4.89159632	          5.06532764	        -18.08347130	          5.89531183	          0.00000000	          0.00000000	        -20.05374908	         -2.69862103	          3.98539734	          0.00000000	          0.00000000	          0.00000000	          1.75035840	          0.00000000	         -0.17315359	        -26.10741563	        407.74870501	         15.39997423	          1.50281323	          0.00000000	         -0.30699432	          0.00000000	          0.00000000	          0.00000000	          0.00000000	          1.82772510	          0.00000000	          1.41611934	          0.83847046	         -0.28627628	          1.41305923	          0.81890619	         -0.22229660	          1.41635025	          0.82087928	         -0.33970574	          1.40712643	          0.43831331	         -0.17918904	          1.49169636	          0.47070184	         -0.31087747	          1.11533487	          0.17933525	         -0.22104105	          1.45286489	          0.06590818	         -0.30774495	          1.47241533	          0.90100974	         -0.27205828	          1.46113217	          0.89800423	         -0.17198364	          1.48369849	          0.90401524	         -0.37213293	          1.31283641	          0.92593598	         -0.26561949	          1.31887329	          0.92778003	         -0.32083523	          1.40204787	          0.44455495	         -0.12478087	          1.51620257	          0.47196853	         -0.35954055	          1.42258275	          0.42990714	         -0.23423231	          1.46942651	          0.45345476	         -0.27632061	          1.10236061	          0.18827666	         -0.18591318	          1.46814167	          0.06416954	         -0.34304151	          1.14368570	          0.18084866	         -0.24630848	          1.46833360	          0.07798928	         -0.27820969	          1.37733924	          1.34090698	         -0.26337546	          1.47128117	          1.26335824	         -0.21301922	          1.47472477	          1.26389527	         -0.32048264	          1.45872378	          1.27545035	         -0.27222443	          1.50463378	          1.10598028	         -0.27065825	          1.55145252	          0.61492467	         -0.16326950	          1.57563102	          0.65603548	         -0.27098560	          1.46780837	          0.66398007	         -0.14126833	          1.52504110	          0.68275398	         -0.35400558	          1.46053553	          0.57894075	         -0.13635254	          1.53935277	          0.59711486	         -0.34218937	          1.17851734	          0.27657139	         -0.10499988	          1.46487045	          0.17830001	         -0.41677135	          1.19290841	          0.27790198	         -0.14486168	          1.46482348	          0.18589671	         -0.37431082	          1.17056870	          0.08369637	         -0.18503341	          1.58349609	          0.03834616	         -0.29127628	
          0.29999998	          1.47757411	          0.90140462	         -0.27288485	          3.08470917	          2.63110828	         -5.99589014	         -2.12702274	         -8.38434505	         -8.85869026	        -50.35252380	          2.79840350	          0.00000000	          0.00000000	          9.43686676	          4.93886566	          4.75779057	        -18.20793915	          6.27472639	          0.00000000	          0.00000000	        -20.10234642	         -2.56717277	          3.90658641	          0.00000000	          0.00000000	          0.00000000	          1.75266785	          0.00000000	         -0.17361624	        -26.13418290	        407.40642479	         14.71433896	          1.50612012	          0.00000000	         -0.30626361	          0.00000000	          0.00000000	          0.00000000	          0.00000000	          1.78326270	          0.00000000	          1.42149687	          0.83881533	         -0.28667751	          1.41844761	          0.81925160	         -0.22293177	          1.42153847	          0.82109874	         -0.34034839	          1.41828406	          0.43884909	         -0.17779817	          1.49499476	          0.47055486	         -0.31125820	          1.12579453	          0.18205416	         -0.22201444	          1.45302498	          0.06601179	         -0.30766636	          1.47757411	          0.90140462	         -0.27288485	          1.46646738	          0.89849228	         -0.17281875	          1.48868096	          0.90431696	         -0.37295091	          1.31797528	          0.92599529	         -0.26584136	          1.32397580	          0.92786586	         -0.32122299	          1.41311574	          0.44530272	         -0.12342320	          1.51916921	          0.47156799	         -0.36009288	          1.43447876	          0.43019629	         -0.23289676	          1.47289968	          0.45347732	         -0.27646580	          1.11249137	          0.19118783	         -0.18705946	          1.46817982	          0.06412575	         -0.34300792	          1.15461993	          0.18286572	         -0.24697071	          1.46845770	          0.07791097	         -0.27815440	          1.38200462	          1.34116793	         -0.26386732	          1.47601521	          1.26368582	         -0.21347824	          1.47948980	          1.26430845	         -0.32098243	          1.46349430	          1.27578759	         -0.27271724	          1.50955939	          1.10638881	         -0.27124846	          1.56038857	          0.61745822	         -0.16269231	          1.58042920	          0.65543914	         -0.27231258	          1.47611058	          0.66537392	         -0.14105286	          1.52933764	          0.68229562	         -0.35494822	          1.47010648	          0.58026385	         -0.13572294	          1.54318428	          0.59659398	         -0.34314755	          1.18842411	          0.27925923	         -0.10574980	          1.46556866	          0.17821191	         -0.41686925	          1.20333409	          0.28032222	         -0.14553349	          1.46563792	          0.18579790	         -0.37440121	          1.18072033	          0.08695210	         -0.18315551	          1.58355200	          0.03830963	         -0.29129496	
